<svg width="748" height="201" viewBox="0 0 748 201" fill="none" xmlns="http://www.w3.org/2000/svg">
<mask id="path-2-outside-1_42_37" maskUnits="userSpaceOnUse" x="95" y="61" width="559" height="91" fill="black">
<rect fill="white" x="95" y="61" width="559" height="91"/>
<path d="M100.773 135C99.7643 135 98.9974 134.738 98.4727 134.213C97.9479 133.648 97.6855 133.042 97.6855 132.396C97.6855 131.751 97.9277 131.165 98.4121 130.641C98.9368 130.076 99.7038 129.793 100.713 129.793H110.4V69.3066H100.35C99.3405 69.3066 98.5938 69.0241 98.1094 68.459C97.625 67.8939 97.3828 67.2884 97.3828 66.6426C97.3828 65.9967 97.625 65.4115 98.1094 64.8867C98.5938 64.362 99.3203 64.0996 100.289 64.0996H121.844C126.405 64.0996 130.583 64.6243 134.377 65.6738C138.171 66.6829 141.219 68.4186 143.52 70.8809C145.82 73.3431 146.971 76.7741 146.971 81.1738C146.971 84.8874 145.982 87.9349 144.004 90.3164C142.066 92.6576 139.745 94.2318 137.041 95.0391C141.36 95.6849 145.074 97.4811 148.182 100.428C151.29 103.374 152.844 107.875 152.844 113.93C152.844 118.935 151.471 122.992 148.727 126.1C146.022 129.208 142.369 131.468 137.768 132.881C133.206 134.294 128.1 135 122.449 135H100.773ZM116.213 94.252H124.084C127.071 94.252 129.896 93.8281 132.561 92.9805C135.265 92.0924 137.465 90.7201 139.16 88.8633C140.896 86.9661 141.764 84.4837 141.764 81.416C141.764 76.8548 139.988 73.7064 136.436 71.9707C132.924 70.1947 128.322 69.3066 122.631 69.3066H116.213V94.252ZM116.213 129.793H122.631C127.394 129.793 131.612 129.288 135.285 128.279C138.958 127.23 141.824 125.494 143.883 123.072C145.982 120.61 147.031 117.26 147.031 113.021C147.031 108.743 145.941 105.615 143.762 103.637C141.622 101.618 138.797 100.327 135.285 99.7617C131.814 99.1562 128.08 98.8535 124.084 98.8535H116.213V129.793ZM225.476 136.029C218.251 136.029 212.357 133.749 207.796 129.188C203.235 124.586 200.954 118.188 200.954 109.994V69.3066H192.175C191.166 69.3066 190.419 69.0443 189.935 68.5195C189.45 67.9948 189.208 67.4095 189.208 66.7637C189.208 66.0775 189.45 65.472 189.935 64.9473C190.46 64.3822 191.226 64.0996 192.236 64.0996H216.515C217.524 64.0996 218.271 64.3822 218.755 64.9473C219.28 65.472 219.542 66.0775 219.542 66.7637C219.542 67.4095 219.3 67.9948 218.816 68.5195C218.331 69.0443 217.585 69.3066 216.575 69.3066H206.767V109.994C206.767 116.574 208.381 121.7 211.611 125.373C214.84 129.006 219.461 130.822 225.476 130.822C231.127 130.822 235.627 128.885 238.978 125.01C242.328 121.135 244.003 116.17 244.003 110.115V69.3066H236.677C235.668 69.3066 234.901 69.0443 234.376 68.5195C233.892 67.9948 233.65 67.4095 233.65 66.7637C233.65 66.0775 233.912 65.472 234.437 64.9473C234.961 64.3822 235.728 64.0996 236.738 64.0996H256.9C258.312 64.0996 259.362 64.3822 260.048 64.9473C260.775 65.472 261.138 66.0775 261.138 66.7637C261.138 67.4095 260.795 67.9948 260.109 68.5195C259.422 69.0443 258.373 69.3066 256.96 69.3066H249.816V110.115C249.816 115.242 248.786 119.762 246.728 123.678C244.71 127.553 241.864 130.58 238.191 132.76C234.558 134.939 230.32 136.029 225.476 136.029ZM345.153 127.008C344.911 127.008 344.628 126.947 344.305 126.826L291.024 104.908C290.499 104.706 290.095 104.303 289.813 103.697C289.571 103.051 289.45 102.385 289.45 101.699C289.45 100.973 289.591 100.286 289.873 99.6406C290.156 98.9948 290.539 98.571 291.024 98.3691L343.579 76.5117C343.821 76.431 344.023 76.3906 344.184 76.3906C344.87 76.3906 345.476 76.7539 346 77.4805C346.566 78.1667 346.848 78.8932 346.848 79.6602C346.848 80.6289 346.424 81.2747 345.577 81.5977L296.594 101.457L346.182 121.619C347.272 122.063 347.817 122.83 347.817 123.92C347.817 124.687 347.554 125.393 347.03 126.039C346.505 126.685 345.879 127.008 345.153 127.008ZM403.193 149.35C402.507 149.35 401.861 149.107 401.255 148.623C400.65 148.139 400.347 147.533 400.347 146.807C400.347 146.443 400.428 146.1 400.589 145.777L440.974 65.25C441.418 64.4023 442.165 63.9785 443.214 63.9785C443.901 63.9785 444.526 64.2005 445.091 64.6445C445.697 65.0482 446 65.6133 446 66.3398C446 66.7031 445.879 67.127 445.636 67.6113L405.433 147.896C404.908 148.865 404.162 149.35 403.193 149.35ZM500.77 127.008C500.084 127.008 499.458 126.665 498.893 125.979C498.369 125.252 498.106 124.505 498.106 123.738C498.106 122.77 498.53 122.124 499.378 121.801L548.36 101.941L498.772 81.7793C497.682 81.3353 497.138 80.5684 497.138 79.4785C497.138 78.7116 497.4 78.0052 497.925 77.3594C498.449 76.7135 499.075 76.3906 499.802 76.3906C500.084 76.3906 500.367 76.4512 500.649 76.5723L553.93 98.4902C554.455 98.6921 554.839 99.1159 555.081 99.7617C555.363 100.367 555.505 101.013 555.505 101.699C555.505 102.426 555.363 103.112 555.081 103.758C554.798 104.404 554.415 104.827 553.93 105.029L501.376 126.887C501.134 126.967 500.932 127.008 500.77 127.008ZM594.594 135C593.585 135 592.818 134.738 592.293 134.213C591.768 133.648 591.506 133.042 591.506 132.396C591.506 131.751 591.748 131.165 592.232 130.641C592.757 130.076 593.524 129.793 594.533 129.793H604.402V69.3066H594.775C593.807 69.3066 593.08 69.0443 592.596 68.5195C592.111 67.9948 591.869 67.4095 591.869 66.7637C591.869 66.0775 592.111 65.472 592.596 64.9473C593.12 64.3822 593.887 64.0996 594.896 64.0996H616.572C623.515 64.0996 629.549 65.3509 634.676 67.8535C639.842 70.3158 643.859 74.1302 646.725 79.2969C649.59 84.4635 651.023 91.1035 651.023 99.2168C651.023 112.012 647.996 121.175 641.941 126.705C635.887 132.235 627.39 135 616.451 135H594.594ZM610.215 129.793H616.875C626.885 129.793 634.111 127.23 638.551 122.104C642.991 116.977 645.211 109.348 645.211 99.2168C645.211 89.6504 642.85 82.2839 638.127 77.1172C633.404 71.9102 626.603 69.3066 617.723 69.3066H610.215V129.793Z"/>
</mask>
<path d="M100.773 135C99.7643 135 98.9974 134.738 98.4727 134.213C97.9479 133.648 97.6855 133.042 97.6855 132.396C97.6855 131.751 97.9277 131.165 98.4121 130.641C98.9368 130.076 99.7038 129.793 100.713 129.793H110.4V69.3066H100.35C99.3405 69.3066 98.5938 69.0241 98.1094 68.459C97.625 67.8939 97.3828 67.2884 97.3828 66.6426C97.3828 65.9967 97.625 65.4115 98.1094 64.8867C98.5938 64.362 99.3203 64.0996 100.289 64.0996H121.844C126.405 64.0996 130.583 64.6243 134.377 65.6738C138.171 66.6829 141.219 68.4186 143.52 70.8809C145.82 73.3431 146.971 76.7741 146.971 81.1738C146.971 84.8874 145.982 87.9349 144.004 90.3164C142.066 92.6576 139.745 94.2318 137.041 95.0391C141.36 95.6849 145.074 97.4811 148.182 100.428C151.29 103.374 152.844 107.875 152.844 113.93C152.844 118.935 151.471 122.992 148.727 126.1C146.022 129.208 142.369 131.468 137.768 132.881C133.206 134.294 128.1 135 122.449 135H100.773ZM116.213 94.252H124.084C127.071 94.252 129.896 93.8281 132.561 92.9805C135.265 92.0924 137.465 90.7201 139.16 88.8633C140.896 86.9661 141.764 84.4837 141.764 81.416C141.764 76.8548 139.988 73.7064 136.436 71.9707C132.924 70.1947 128.322 69.3066 122.631 69.3066H116.213V94.252ZM116.213 129.793H122.631C127.394 129.793 131.612 129.288 135.285 128.279C138.958 127.23 141.824 125.494 143.883 123.072C145.982 120.61 147.031 117.26 147.031 113.021C147.031 108.743 145.941 105.615 143.762 103.637C141.622 101.618 138.797 100.327 135.285 99.7617C131.814 99.1562 128.08 98.8535 124.084 98.8535H116.213V129.793ZM225.476 136.029C218.251 136.029 212.357 133.749 207.796 129.188C203.235 124.586 200.954 118.188 200.954 109.994V69.3066H192.175C191.166 69.3066 190.419 69.0443 189.935 68.5195C189.45 67.9948 189.208 67.4095 189.208 66.7637C189.208 66.0775 189.45 65.472 189.935 64.9473C190.46 64.3822 191.226 64.0996 192.236 64.0996H216.515C217.524 64.0996 218.271 64.3822 218.755 64.9473C219.28 65.472 219.542 66.0775 219.542 66.7637C219.542 67.4095 219.3 67.9948 218.816 68.5195C218.331 69.0443 217.585 69.3066 216.575 69.3066H206.767V109.994C206.767 116.574 208.381 121.7 211.611 125.373C214.84 129.006 219.461 130.822 225.476 130.822C231.127 130.822 235.627 128.885 238.978 125.01C242.328 121.135 244.003 116.17 244.003 110.115V69.3066H236.677C235.668 69.3066 234.901 69.0443 234.376 68.5195C233.892 67.9948 233.65 67.4095 233.65 66.7637C233.65 66.0775 233.912 65.472 234.437 64.9473C234.961 64.3822 235.728 64.0996 236.738 64.0996H256.9C258.312 64.0996 259.362 64.3822 260.048 64.9473C260.775 65.472 261.138 66.0775 261.138 66.7637C261.138 67.4095 260.795 67.9948 260.109 68.5195C259.422 69.0443 258.373 69.3066 256.96 69.3066H249.816V110.115C249.816 115.242 248.786 119.762 246.728 123.678C244.71 127.553 241.864 130.58 238.191 132.76C234.558 134.939 230.32 136.029 225.476 136.029ZM345.153 127.008C344.911 127.008 344.628 126.947 344.305 126.826L291.024 104.908C290.499 104.706 290.095 104.303 289.813 103.697C289.571 103.051 289.45 102.385 289.45 101.699C289.45 100.973 289.591 100.286 289.873 99.6406C290.156 98.9948 290.539 98.571 291.024 98.3691L343.579 76.5117C343.821 76.431 344.023 76.3906 344.184 76.3906C344.87 76.3906 345.476 76.7539 346 77.4805C346.566 78.1667 346.848 78.8932 346.848 79.6602C346.848 80.6289 346.424 81.2747 345.577 81.5977L296.594 101.457L346.182 121.619C347.272 122.063 347.817 122.83 347.817 123.92C347.817 124.687 347.554 125.393 347.03 126.039C346.505 126.685 345.879 127.008 345.153 127.008ZM403.193 149.35C402.507 149.35 401.861 149.107 401.255 148.623C400.65 148.139 400.347 147.533 400.347 146.807C400.347 146.443 400.428 146.1 400.589 145.777L440.974 65.25C441.418 64.4023 442.165 63.9785 443.214 63.9785C443.901 63.9785 444.526 64.2005 445.091 64.6445C445.697 65.0482 446 65.6133 446 66.3398C446 66.7031 445.879 67.127 445.636 67.6113L405.433 147.896C404.908 148.865 404.162 149.35 403.193 149.35ZM500.77 127.008C500.084 127.008 499.458 126.665 498.893 125.979C498.369 125.252 498.106 124.505 498.106 123.738C498.106 122.77 498.53 122.124 499.378 121.801L548.36 101.941L498.772 81.7793C497.682 81.3353 497.138 80.5684 497.138 79.4785C497.138 78.7116 497.4 78.0052 497.925 77.3594C498.449 76.7135 499.075 76.3906 499.802 76.3906C500.084 76.3906 500.367 76.4512 500.649 76.5723L553.93 98.4902C554.455 98.6921 554.839 99.1159 555.081 99.7617C555.363 100.367 555.505 101.013 555.505 101.699C555.505 102.426 555.363 103.112 555.081 103.758C554.798 104.404 554.415 104.827 553.93 105.029L501.376 126.887C501.134 126.967 500.932 127.008 500.77 127.008ZM594.594 135C593.585 135 592.818 134.738 592.293 134.213C591.768 133.648 591.506 133.042 591.506 132.396C591.506 131.751 591.748 131.165 592.232 130.641C592.757 130.076 593.524 129.793 594.533 129.793H604.402V69.3066H594.775C593.807 69.3066 593.08 69.0443 592.596 68.5195C592.111 67.9948 591.869 67.4095 591.869 66.7637C591.869 66.0775 592.111 65.472 592.596 64.9473C593.12 64.3822 593.887 64.0996 594.896 64.0996H616.572C623.515 64.0996 629.549 65.3509 634.676 67.8535C639.842 70.3158 643.859 74.1302 646.725 79.2969C649.59 84.4635 651.023 91.1035 651.023 99.2168C651.023 112.012 647.996 121.175 641.941 126.705C635.887 132.235 627.39 135 616.451 135H594.594ZM610.215 129.793H616.875C626.885 129.793 634.111 127.23 638.551 122.104C642.991 116.977 645.211 109.348 645.211 99.2168C645.211 89.6504 642.85 82.2839 638.127 77.1172C633.404 71.9102 626.603 69.3066 617.723 69.3066H610.215V129.793Z" fill="black"/>
<path d="M98.4727 134.213L97.0071 135.574L97.0323 135.601L97.0584 135.627L98.4727 134.213ZM98.4121 130.641L96.9465 129.28L96.9425 129.284L98.4121 130.641ZM110.4 129.793V131.793H112.4V129.793H110.4ZM110.4 69.3066H112.4V67.3066H110.4V69.3066ZM134.377 65.6738L133.844 67.6015L133.853 67.6041L133.863 67.6066L134.377 65.6738ZM143.52 70.8809L142.058 72.2463L143.52 70.8809ZM144.004 90.3164L142.465 89.0386L142.463 89.0413L144.004 90.3164ZM137.041 95.0391L136.469 93.1226L136.745 97.0171L137.041 95.0391ZM148.182 100.428L149.558 98.9763L148.182 100.428ZM148.727 126.1L147.227 124.776L147.223 124.781L147.218 124.787L148.727 126.1ZM137.768 132.881L137.181 130.969L137.176 130.97L137.768 132.881ZM116.213 94.252H114.213V96.252H116.213V94.252ZM132.561 92.9805L133.167 94.8863L133.176 94.8835L133.184 94.8807L132.561 92.9805ZM139.16 88.8633L137.685 87.5133L137.683 87.5147L139.16 88.8633ZM136.436 71.9707L135.533 73.7554L135.545 73.7616L135.557 73.7677L136.436 71.9707ZM116.213 69.3066V67.3066H114.213V69.3066H116.213ZM116.213 129.793H114.213V131.793H116.213V129.793ZM135.285 128.279L135.815 130.208L135.825 130.205L135.835 130.202L135.285 128.279ZM143.883 123.072L142.361 121.775L142.359 121.777L143.883 123.072ZM143.762 103.637L142.389 105.092L142.403 105.105L142.418 105.118L143.762 103.637ZM135.285 99.7617L134.942 101.732L134.954 101.734L134.967 101.736L135.285 99.7617ZM116.213 98.8535V96.8535H114.213V98.8535H116.213ZM100.773 135V133C100.099 133 99.9177 132.829 99.8869 132.799L98.4727 134.213L97.0584 135.627C98.0771 136.646 99.4297 137 100.773 137V135ZM98.4727 134.213L99.9382 132.852C99.6864 132.581 99.6855 132.442 99.6855 132.396H97.6855H95.6855C95.6855 133.642 96.2095 134.715 97.0071 135.574L98.4727 134.213ZM97.6855 132.396H99.6855C99.6855 132.308 99.6993 132.195 99.8817 131.997L98.4121 130.641L96.9425 129.284C96.1562 130.136 95.6855 131.193 95.6855 132.396H97.6855ZM98.4121 130.641L99.8777 132.002C99.9165 131.96 100.079 131.793 100.713 131.793V129.793V127.793C99.3282 127.793 97.9572 128.191 96.9465 129.28L98.4121 130.641ZM100.713 129.793V131.793H110.4V129.793V127.793H100.713V129.793ZM110.4 129.793H112.4V69.3066H110.4H108.4V129.793H110.4ZM110.4 69.3066V67.3066H100.35V69.3066V71.3066H110.4V69.3066ZM100.35 69.3066V67.3066C100.026 67.3066 99.8368 67.2606 99.7405 67.2242C99.6573 67.1927 99.636 67.1669 99.6279 67.1574L98.1094 68.459L96.5909 69.7606C97.5776 70.9118 98.9754 71.3066 100.35 71.3066V69.3066ZM98.1094 68.459L99.6279 67.1574C99.404 66.8962 99.3828 66.7392 99.3828 66.6426H97.3828H95.3828C95.3828 67.8377 95.846 68.8915 96.5909 69.7606L98.1094 68.459ZM97.3828 66.6426H99.3828C99.3828 66.5543 99.3966 66.4409 99.579 66.2433L98.1094 64.8867L96.6398 63.5302C95.8534 64.382 95.3828 65.4392 95.3828 66.6426H97.3828ZM98.1094 64.8867L99.579 66.2433C99.5861 66.2356 99.6101 66.2088 99.6969 66.1775C99.7949 66.1421 99.9799 66.0996 100.289 66.0996V64.0996V62.0996C98.9691 62.0996 97.6234 62.4645 96.6398 63.5302L98.1094 64.8867ZM100.289 64.0996V66.0996H121.844V64.0996V62.0996H100.289V64.0996ZM121.844 64.0996V66.0996C126.253 66.0996 130.248 66.6069 133.844 67.6015L134.377 65.6738L134.91 63.7462C130.917 62.6418 126.557 62.0996 121.844 62.0996V64.0996ZM134.377 65.6738L133.863 67.6066C137.355 68.5355 140.054 70.101 142.058 72.2463L143.52 70.8809L144.981 69.5154C142.384 66.7362 138.987 64.8304 134.891 63.741L134.377 65.6738ZM143.52 70.8809L142.058 72.2463C143.917 74.236 144.971 77.1215 144.971 81.1738H146.971H148.971C148.971 76.4267 147.723 72.4502 144.981 69.5154L143.52 70.8809ZM146.971 81.1738H144.971C144.971 84.5177 144.088 87.0843 142.465 89.0386L144.004 90.3164L145.542 91.5942C147.875 88.7855 148.971 85.257 148.971 81.1738H146.971ZM144.004 90.3164L142.463 89.0413C140.758 91.102 138.765 92.4373 136.469 93.1226L137.041 95.0391L137.613 96.9555C140.726 96.0262 143.375 94.2131 145.545 91.5915L144.004 90.3164ZM137.041 95.0391L136.745 97.0171C140.667 97.6035 144.001 99.2205 146.806 101.879L148.182 100.428L149.558 98.9763C146.146 95.7417 142.053 93.7663 137.337 93.0611L137.041 95.0391ZM148.182 100.428L146.806 101.879C149.374 104.314 150.844 108.192 150.844 113.93H152.844H154.844C154.844 107.558 153.206 102.435 149.558 98.9763L148.182 100.428ZM152.844 113.93H150.844C150.844 118.553 149.586 122.105 147.227 124.776L148.727 126.1L150.226 127.424C153.357 123.878 154.844 119.317 154.844 113.93H152.844ZM148.727 126.1L147.218 124.787C144.797 127.568 141.486 129.647 137.181 130.969L137.768 132.881L138.355 134.793C143.252 133.289 147.247 130.847 150.235 127.412L148.727 126.1ZM137.768 132.881L137.176 130.97C132.838 132.314 127.935 133 122.449 133V135V137C128.265 137 133.575 136.273 138.359 134.791L137.768 132.881ZM122.449 135V133H100.773V135V137H122.449V135ZM116.213 94.252V96.252H124.084V94.252V92.252H116.213V94.252ZM124.084 94.252V96.252C127.263 96.252 130.294 95.8005 133.167 94.8863L132.561 92.9805L131.954 91.0746C129.499 91.8557 126.879 92.252 124.084 92.252V94.252ZM132.561 92.9805L133.184 94.8807C136.172 93.8997 138.68 92.3549 140.637 90.2118L139.16 88.8633L137.683 87.5147C136.249 89.0852 134.358 90.2852 131.937 91.0803L132.561 92.9805ZM139.16 88.8633L140.636 90.2133C142.772 87.8785 143.764 84.8814 143.764 81.416H141.764H139.764C139.764 84.0861 139.02 86.0538 137.685 87.5133L139.16 88.8633ZM141.764 81.416H143.764C143.764 78.8797 143.27 76.594 142.174 74.6511C141.068 72.6912 139.418 71.2019 137.314 70.1738L136.436 71.9707L135.557 73.7677C137.005 74.4752 138.019 75.4279 138.69 76.6164C139.37 77.822 139.764 79.3911 139.764 81.416H141.764ZM136.436 71.9707L137.338 70.186C133.45 68.2195 128.506 67.3066 122.631 67.3066V69.3066V71.3066C128.139 71.3066 132.398 72.1698 135.533 73.7554L136.436 71.9707ZM122.631 69.3066V67.3066H116.213V69.3066V71.3066H122.631V69.3066ZM116.213 69.3066H114.213V94.252H116.213H118.213V69.3066H116.213ZM116.213 129.793V131.793H122.631V129.793V127.793H116.213V129.793ZM122.631 129.793V131.793C127.53 131.793 131.932 131.274 135.815 130.208L135.285 128.279L134.755 126.351C131.292 127.302 127.257 127.793 122.631 127.793V129.793ZM135.285 128.279L135.835 130.202C139.81 129.067 143.045 127.146 145.407 124.368L143.883 123.072L142.359 121.777C140.604 123.842 138.107 125.393 134.736 126.356L135.285 128.279ZM143.883 123.072L145.405 124.37C147.897 121.446 149.031 117.586 149.031 113.021H147.031H145.031C145.031 116.934 144.066 119.774 142.361 121.775L143.883 123.072ZM147.031 113.021H149.031C149.031 108.439 147.863 104.658 145.106 102.156L143.762 103.637L142.418 105.118C144.02 106.571 145.031 109.047 145.031 113.021H147.031ZM143.762 103.637L145.134 102.182C142.647 99.8355 139.426 98.4024 135.603 97.7871L135.285 99.7617L134.967 101.736C138.167 102.251 140.598 103.401 142.389 105.092L143.762 103.637ZM135.285 99.7617L135.629 97.7915C132.03 97.1638 128.18 96.8535 124.084 96.8535V98.8535V100.854C127.98 100.854 131.598 101.149 134.942 101.732L135.285 99.7617ZM124.084 98.8535V96.8535H116.213V98.8535V100.854H124.084V98.8535ZM116.213 98.8535H114.213V129.793H116.213H118.213V98.8535H116.213ZM207.796 129.188L206.376 130.595L206.382 130.602L207.796 129.188ZM200.954 69.3066H202.954V67.3066H200.954V69.3066ZM189.935 64.9473L188.469 63.5864L188.465 63.5907L189.935 64.9473ZM218.755 64.9473L217.237 66.2488L217.287 66.3072L217.341 66.3615L218.755 64.9473ZM206.767 69.3066V67.3066H204.767V69.3066H206.767ZM211.611 125.373L210.108 126.694L210.116 126.702L211.611 125.373ZM244.003 69.3066H246.003V67.3066H244.003V69.3066ZM234.376 68.5195L232.907 69.8761L232.934 69.9055L232.962 69.9337L234.376 68.5195ZM234.437 64.9473L235.851 66.3615L235.877 66.3353L235.902 66.3082L234.437 64.9473ZM260.048 64.9473L258.777 66.4911L258.826 66.5315L258.877 66.5686L260.048 64.9473ZM249.816 69.3066V67.3066H247.816V69.3066H249.816ZM246.728 123.678L244.957 122.747L244.954 122.754L246.728 123.678ZM238.191 132.76L237.17 131.04L237.162 131.045L238.191 132.76ZM225.476 136.029V134.029C218.711 134.029 213.35 131.913 209.21 127.773L207.796 129.188L206.382 130.602C211.365 135.585 217.79 138.029 225.476 138.029V136.029ZM207.796 129.188L209.217 127.78C205.118 123.645 202.954 117.807 202.954 109.994H200.954H198.954C198.954 118.569 201.351 125.527 206.376 130.595L207.796 129.188ZM200.954 109.994H202.954V69.3066H200.954H198.954V109.994H200.954ZM200.954 69.3066V67.3066H192.175V69.3066V71.3066H200.954V69.3066ZM192.175 69.3066V67.3066C191.837 67.3066 191.632 67.2619 191.521 67.2229C191.468 67.2042 191.438 67.1876 191.425 67.1788C191.412 67.1706 191.407 67.1654 191.404 67.163L189.935 68.5195L188.465 69.8761C189.463 70.9572 190.844 71.3066 192.175 71.3066V69.3066ZM189.935 68.5195L191.404 67.163C191.222 66.9653 191.208 66.8519 191.208 66.7637H189.208H187.208C187.208 67.9671 187.679 69.0242 188.465 69.8761L189.935 68.5195ZM189.208 66.7637H191.208C191.208 66.6024 191.246 66.4757 191.404 66.3038L189.935 64.9473L188.465 63.5907C187.655 64.4683 187.208 65.5526 187.208 66.7637H189.208ZM189.935 64.9473L191.4 66.3082C191.439 66.2664 191.602 66.0996 192.236 66.0996V64.0996V62.0996C190.851 62.0996 189.48 62.498 188.469 63.5864L189.935 64.9473ZM192.236 64.0996V66.0996H216.515V64.0996V62.0996H192.236V64.0996ZM216.515 64.0996V66.0996C216.839 66.0996 217.028 66.1456 217.124 66.1821C217.207 66.2136 217.228 66.2393 217.237 66.2488L218.755 64.9473L220.274 63.6457C219.287 62.4945 217.889 62.0996 216.515 62.0996V64.0996ZM218.755 64.9473L217.341 66.3615C217.524 66.5449 217.542 66.6538 217.542 66.7637H219.542H221.542C221.542 65.5012 221.035 64.3991 220.169 63.5331L218.755 64.9473ZM219.542 66.7637H217.542C217.542 66.8519 217.528 66.9653 217.346 67.163L218.816 68.5195L220.285 69.8761C221.072 69.0242 221.542 67.9671 221.542 66.7637H219.542ZM218.816 68.5195L217.346 67.163C217.344 67.1654 217.339 67.1706 217.326 67.1788C217.312 67.1876 217.283 67.2042 217.229 67.2229C217.118 67.2619 216.913 67.3066 216.575 67.3066V69.3066V71.3066C217.907 71.3066 219.287 70.9572 220.285 69.8761L218.816 68.5195ZM216.575 69.3066V67.3066H206.767V69.3066V71.3066H216.575V69.3066ZM206.767 69.3066H204.767V109.994H206.767H208.767V69.3066H206.767ZM206.767 109.994H204.767C204.767 116.89 206.462 122.545 210.108 126.694L211.611 125.373L213.113 124.053C210.301 120.854 208.767 116.257 208.767 109.994H206.767ZM211.611 125.373L210.116 126.702C213.812 130.86 219.037 132.822 225.476 132.822V130.822V128.822C219.886 128.822 215.867 127.152 213.105 124.044L211.611 125.373ZM225.476 130.822V132.822C231.64 132.822 236.719 130.681 240.491 126.318L238.978 125.01L237.465 123.702C234.536 127.089 230.613 128.822 225.476 128.822V130.822ZM238.978 125.01L240.491 126.318C244.21 122.015 246.003 116.558 246.003 110.115H244.003H242.003C242.003 115.782 240.446 120.254 237.465 123.702L238.978 125.01ZM244.003 110.115H246.003V69.3066H244.003H242.003V110.115H244.003ZM244.003 69.3066V67.3066H236.677V69.3066V71.3066H244.003V69.3066ZM236.677 69.3066V67.3066C236.002 67.3066 235.821 67.1361 235.79 67.1053L234.376 68.5195L232.962 69.9337C233.981 70.9524 235.333 71.3066 236.677 71.3066V69.3066ZM234.376 68.5195L235.846 67.163C235.663 66.9653 235.65 66.8519 235.65 66.7637H233.65H231.65C231.65 67.9671 232.12 69.0242 232.907 69.8761L234.376 68.5195ZM233.65 66.7637H235.65C235.65 66.6538 235.668 66.5449 235.851 66.3615L234.437 64.9473L233.023 63.5331C232.156 64.3991 231.65 65.5012 231.65 66.7637H233.65ZM234.437 64.9473L235.902 66.3082C235.941 66.2664 236.104 66.0996 236.738 66.0996V64.0996V62.0996C235.353 62.0996 233.982 62.498 232.971 63.5864L234.437 64.9473ZM236.738 64.0996V66.0996H256.9V64.0996V62.0996H236.738V64.0996ZM256.9 64.0996V66.0996C258.105 66.0996 258.606 66.3508 258.777 66.4911L260.048 64.9473L261.319 63.4034C260.117 62.4135 258.52 62.0996 256.9 62.0996V64.0996ZM260.048 64.9473L258.877 66.5686C259.078 66.7135 259.14 66.8069 259.15 66.8239C259.155 66.8308 259.15 66.8241 259.144 66.8057C259.139 66.7869 259.138 66.771 259.138 66.7637H261.138H263.138C263.138 65.2459 262.291 64.1 261.219 63.3259L260.048 64.9473ZM261.138 66.7637H259.138C259.138 66.7456 259.141 66.7226 259.147 66.6998C259.153 66.6776 259.159 66.6689 259.155 66.6756C259.145 66.6925 259.085 66.7847 258.894 66.9308L260.109 68.5195L261.324 70.1082C262.324 69.343 263.138 68.2289 263.138 66.7637H261.138ZM260.109 68.5195L258.894 66.9308C258.716 67.0664 258.19 67.3066 256.96 67.3066V69.3066V71.3066C258.555 71.3066 260.128 71.0221 261.324 70.1082L260.109 68.5195ZM256.96 69.3066V67.3066H249.816V69.3066V71.3066H256.96V69.3066ZM249.816 69.3066H247.816V110.115H249.816H251.816V69.3066H249.816ZM249.816 110.115H247.816C247.816 114.969 246.843 119.161 244.958 122.747L246.728 123.678L248.498 124.608C250.73 120.364 251.816 115.514 251.816 110.115H249.816ZM246.728 123.678L244.954 122.754C243.104 126.307 240.515 129.055 237.17 131.04L238.191 132.76L239.211 134.48C243.212 132.105 246.315 128.799 248.502 124.602L246.728 123.678ZM238.191 132.76L237.162 131.045C233.882 133.012 230.01 134.029 225.476 134.029V136.029V138.029C230.629 138.029 235.234 136.866 239.22 134.475L238.191 132.76ZM344.305 126.826L343.544 128.676L343.573 128.688L343.603 128.699L344.305 126.826ZM291.024 104.908L291.785 103.059L291.763 103.05L291.742 103.042L291.024 104.908ZM289.813 103.697L287.94 104.4L287.968 104.472L288.001 104.543L289.813 103.697ZM289.873 99.6406L288.041 98.839L289.873 99.6406ZM291.024 98.3691L290.256 96.5225L290.255 96.523L291.024 98.3691ZM343.579 76.5117L342.946 74.6144L342.877 74.6373L342.81 74.6651L343.579 76.5117ZM346 77.4805L344.379 78.6515L344.416 78.7029L344.457 78.7519L346 77.4805ZM345.577 81.5977L344.865 79.7287L344.845 79.7362L344.825 79.7442L345.577 81.5977ZM296.594 101.457L295.843 99.6036L291.278 101.454L295.841 103.31L296.594 101.457ZM346.182 121.619L346.937 119.767L346.935 119.766L346.182 121.619ZM345.153 127.008V125.008C345.196 125.008 345.207 125.013 345.178 125.007C345.15 125.001 345.094 124.986 345.007 124.954L344.305 126.826L343.603 128.699C344.063 128.871 344.592 129.008 345.153 129.008V127.008ZM344.305 126.826L345.066 124.977L291.785 103.059L291.024 104.908L290.263 106.758L343.544 128.676L344.305 126.826ZM291.024 104.908L291.742 103.042C291.74 103.041 291.742 103.042 291.746 103.044C291.749 103.046 291.748 103.046 291.742 103.04C291.73 103.028 291.684 102.978 291.625 102.851L289.813 103.697L288.001 104.543C288.458 105.523 289.209 106.353 290.306 106.775L291.024 104.908ZM289.813 103.697L291.686 102.995C291.527 102.573 291.45 102.144 291.45 101.699H289.45H287.45C287.45 102.627 287.614 103.53 287.94 104.4L289.813 103.697ZM289.45 101.699H291.45C291.45 101.24 291.537 100.827 291.706 100.442L289.873 99.6406L288.041 98.839C287.645 99.7454 287.45 100.705 287.45 101.699H289.45ZM289.873 99.6406L291.706 100.442C291.78 100.273 291.838 100.2 291.856 100.18C291.868 100.167 291.847 100.193 291.793 100.215L291.024 98.3691L290.255 96.523C289.15 96.9832 288.458 97.887 288.041 98.839L289.873 99.6406ZM291.024 98.3691L291.792 100.216L344.347 78.3584L343.579 76.5117L342.81 74.6651L290.256 96.5225L291.024 98.3691ZM343.579 76.5117L344.211 78.4091C344.24 78.3994 344.263 78.3927 344.279 78.3883C344.295 78.3838 344.303 78.3822 344.304 78.3821C344.304 78.3819 344.295 78.3839 344.276 78.386C344.258 78.388 344.226 78.3906 344.184 78.3906V76.3906V74.3906C343.72 74.3906 343.288 74.5003 342.946 74.6144L343.579 76.5117ZM344.184 76.3906V78.3906C344.177 78.3906 344.161 78.3893 344.142 78.384C344.124 78.3789 344.117 78.3739 344.124 78.3781C344.141 78.3883 344.234 78.4508 344.379 78.6515L346 77.4805L347.622 76.3095C346.848 75.2376 345.702 74.3906 344.184 74.3906V76.3906ZM346 77.4805L344.457 78.7519C344.776 79.1399 344.848 79.4292 344.848 79.6602H346.848H348.848C348.848 78.3572 348.355 77.1934 347.544 76.2091L346 77.4805ZM346.848 79.6602H344.848C344.848 79.7577 344.837 79.8063 344.834 79.8184C344.833 79.8241 344.833 79.8213 344.837 79.8121C344.841 79.8028 344.848 79.7894 344.858 79.7738C344.868 79.7581 344.88 79.7433 344.892 79.7303C344.904 79.7173 344.915 79.7087 344.921 79.7041C344.933 79.6945 344.921 79.7072 344.865 79.7287L345.577 81.5977L346.289 83.4666C347.035 83.1823 347.721 82.7015 348.202 81.9684C348.677 81.2456 348.848 80.4355 348.848 79.6602H346.848ZM345.577 81.5977L344.825 79.7442L295.843 99.6036L296.594 101.457L297.346 103.31L346.328 83.4511L345.577 81.5977ZM296.594 101.457L295.841 103.31L345.429 123.472L346.182 121.619L346.935 119.766L297.347 99.6043L296.594 101.457ZM346.182 121.619L345.427 123.471C345.708 123.586 345.775 123.681 345.778 123.686C345.782 123.691 345.788 123.701 345.796 123.726C345.804 123.754 345.817 123.814 345.817 123.92H347.817H349.817C349.817 123.028 349.588 122.142 349.038 121.369C348.497 120.606 347.745 120.096 346.937 119.767L346.182 121.619ZM347.817 123.92H345.817C345.817 124.187 345.739 124.456 345.477 124.778L347.03 126.039L348.582 127.3C349.37 126.33 349.817 125.186 349.817 123.92H347.817ZM347.03 126.039L345.477 124.778C345.358 124.925 345.277 124.974 345.25 124.988C345.23 124.999 345.207 125.008 345.153 125.008V127.008V129.008C346.573 129.008 347.739 128.337 348.582 127.3L347.03 126.039ZM400.589 145.777L398.802 144.881L398.801 144.883L400.589 145.777ZM440.974 65.25L439.203 64.322L439.194 64.3376L439.186 64.3534L440.974 65.25ZM445.091 64.6445L443.856 66.2172L443.917 66.2654L443.982 66.3086L445.091 64.6445ZM445.636 67.6113L447.425 68.5068L447.425 68.5058L445.636 67.6113ZM405.433 147.896L407.192 148.849L407.207 148.821L407.221 148.792L405.433 147.896ZM403.193 149.35V147.35C403.02 147.35 402.804 147.301 402.505 147.061L401.255 148.623L400.006 150.185C400.918 150.914 401.994 151.35 403.193 151.35V149.35ZM401.255 148.623L402.505 147.061C402.395 146.974 402.368 146.92 402.363 146.911C402.361 146.906 402.347 146.883 402.347 146.807H400.347H398.347C398.347 148.186 398.963 149.35 400.006 150.185L401.255 148.623ZM400.347 146.807H402.347C402.347 146.752 402.357 146.715 402.378 146.672L400.589 145.777L398.801 144.883C398.499 145.485 398.347 146.135 398.347 146.807H400.347ZM400.589 145.777L402.377 146.674L442.762 66.1466L440.974 65.25L439.186 64.3534L398.802 144.881L400.589 145.777ZM440.974 65.25L442.746 66.178C442.781 66.1103 442.81 66.0759 442.824 66.0608C442.837 66.047 442.846 66.0407 442.854 66.0358C442.867 66.0288 442.959 65.9785 443.214 65.9785V63.9785V61.9785C442.42 61.9785 441.615 62.1401 440.88 62.557C440.135 62.9797 439.582 63.5983 439.203 64.322L440.974 65.25ZM443.214 63.9785V65.9785C443.43 65.9785 443.625 66.0359 443.856 66.2172L445.091 64.6445L446.327 63.0719C445.428 62.3651 444.371 61.9785 443.214 61.9785V63.9785ZM445.091 64.6445L443.982 66.3086C444.018 66.3326 444.03 66.3462 444.03 66.3454C444.029 66.3451 444.027 66.3422 444.023 66.3366C444.019 66.3309 444.014 66.3238 444.01 66.3155C444.005 66.3073 444.002 66.2995 443.999 66.2928C443.997 66.2862 443.996 66.2822 443.996 66.2816C443.995 66.28 444 66.2974 444 66.3398H446H448C448 64.9433 447.362 63.7543 446.201 62.9804L445.091 64.6445ZM446 66.3398H444C444 66.3011 444.006 66.3109 443.986 66.3807C443.966 66.4505 443.925 66.5613 443.847 66.7169L445.636 67.6113L447.425 68.5058C447.744 67.8687 448 67.1284 448 66.3398H446ZM445.636 67.6113L443.848 66.7158L403.645 147.001L405.433 147.896L407.221 148.792L447.425 68.5068L445.636 67.6113ZM405.433 147.896L403.675 146.944C403.534 147.203 403.425 147.287 403.391 147.308C403.371 147.322 403.327 147.35 403.193 147.35V149.35V151.35C405.011 151.35 406.376 150.356 407.192 148.849L405.433 147.896ZM498.893 125.979L497.272 127.149L497.309 127.201L497.35 127.25L498.893 125.979ZM499.378 121.801L500.09 123.67L500.11 123.662L500.129 123.654L499.378 121.801ZM548.36 101.941L549.112 103.795L553.677 101.944L549.113 100.089L548.36 101.941ZM498.772 81.7793L498.018 83.6315L498.019 83.632L498.772 81.7793ZM500.649 76.5723L499.861 78.4106L499.875 78.4163L499.888 78.4219L500.649 76.5723ZM553.93 98.4902L553.17 100.34L553.191 100.349L553.213 100.357L553.93 98.4902ZM555.081 99.7617L553.208 100.464L553.236 100.537L553.268 100.607L555.081 99.7617ZM555.081 103.758L553.249 102.956L555.081 103.758ZM553.93 105.029L554.699 106.876L554.7 106.875L553.93 105.029ZM501.376 126.887L502.008 128.784L502.077 128.761L502.144 128.733L501.376 126.887ZM500.77 127.008V125.008C500.767 125.008 500.77 125.008 500.773 125.009C500.776 125.009 500.768 125.008 500.748 124.997C500.706 124.974 500.596 124.9 500.437 124.707L498.893 125.979L497.35 127.25C498.174 128.251 499.319 129.008 500.77 129.008V127.008ZM498.893 125.979L500.515 124.808C500.193 124.362 500.106 124.017 500.106 123.738H498.106H496.106C496.106 124.993 496.544 126.141 497.272 127.149L498.893 125.979ZM498.106 123.738H500.106C500.106 123.641 500.117 123.592 500.12 123.58C500.122 123.574 500.121 123.577 500.117 123.586C500.113 123.596 500.106 123.609 500.096 123.625C500.086 123.64 500.074 123.655 500.062 123.668C500.05 123.681 500.04 123.69 500.034 123.694C500.021 123.704 500.033 123.691 500.09 123.67L499.378 121.801L498.666 119.932C497.919 120.216 497.233 120.697 496.752 121.43C496.278 122.153 496.106 122.963 496.106 123.738H498.106ZM499.378 121.801L500.129 123.654L549.112 103.795L548.36 101.941L547.609 100.088L498.626 119.947L499.378 121.801ZM548.36 101.941L549.113 100.089L499.526 79.9266L498.772 81.7793L498.019 83.632L547.607 103.794L548.36 101.941ZM498.772 81.7793L499.527 79.9271C499.246 79.8126 499.18 79.7171 499.177 79.7127C499.173 79.7071 499.166 79.6973 499.159 79.6721C499.151 79.6444 499.138 79.584 499.138 79.4785H497.138H495.138C495.138 80.3706 495.366 81.2562 495.916 82.0295C496.458 82.792 497.209 83.302 498.018 83.6315L498.772 81.7793ZM497.138 79.4785H499.138C499.138 79.2111 499.215 78.9423 499.477 78.6206L497.925 77.3594L496.372 76.0982C495.584 77.0681 495.138 78.2121 495.138 79.4785H497.138ZM497.925 77.3594L499.477 78.6206C499.597 78.4732 499.677 78.4242 499.705 78.4101C499.725 78.3997 499.747 78.3906 499.802 78.3906V76.3906V74.3906C498.381 74.3906 497.215 75.0613 496.372 76.0982L497.925 77.3594ZM499.802 76.3906V78.3906C499.799 78.3906 499.8 78.3902 499.806 78.3916C499.813 78.3932 499.831 78.3977 499.861 78.4106L500.649 76.5723L501.437 74.734C500.928 74.5157 500.378 74.3906 499.802 74.3906V76.3906ZM500.649 76.5723L499.888 78.4219L553.17 100.34L553.93 98.4902L554.691 96.6406L501.41 74.7226L500.649 76.5723ZM553.93 98.4902L553.213 100.357C553.2 100.352 553.182 100.343 553.163 100.33C553.144 100.317 553.133 100.306 553.129 100.301C553.12 100.292 553.158 100.329 553.208 100.464L555.081 99.7617L556.954 99.0595C556.56 98.0099 555.825 97.0762 554.648 96.6235L553.93 98.4902ZM555.081 99.7617L553.268 100.607C553.424 100.941 553.505 101.297 553.505 101.699H555.505H557.505C557.505 100.729 557.303 99.7935 556.893 98.9159L555.081 99.7617ZM555.505 101.699H553.505C553.505 102.159 553.417 102.571 553.249 102.956L555.081 103.758L556.913 104.559C557.31 103.653 557.505 102.693 557.505 101.699H555.505ZM555.081 103.758L553.249 102.956C553.174 103.126 553.116 103.199 553.098 103.218C553.087 103.231 553.108 103.205 553.161 103.183L553.93 105.029L554.7 106.875C555.804 106.415 556.497 105.511 556.913 104.559L555.081 103.758ZM553.93 105.029L553.162 103.183L500.608 125.04L501.376 126.887L502.144 128.733L554.699 106.876L553.93 105.029ZM501.376 126.887L500.743 124.989C500.714 124.999 500.692 125.006 500.675 125.01C500.659 125.015 500.651 125.016 500.651 125.016C500.65 125.017 500.659 125.015 500.678 125.012C500.697 125.01 500.728 125.008 500.77 125.008V127.008V129.008C501.234 129.008 501.666 128.898 502.008 128.784L501.376 126.887ZM592.293 134.213L590.827 135.574L590.853 135.601L590.879 135.627L592.293 134.213ZM592.232 130.641L590.767 129.28L590.763 129.284L592.232 130.641ZM604.402 129.793V131.793H606.402V129.793H604.402ZM604.402 69.3066H606.402V67.3066H604.402V69.3066ZM592.596 64.9473L591.13 63.5864L591.126 63.5907L592.596 64.9473ZM634.676 67.8535L633.798 69.6508L633.807 69.6549L633.815 69.659L634.676 67.8535ZM646.725 79.2969L648.474 78.3267L646.725 79.2969ZM610.215 129.793H608.215V131.793H610.215V129.793ZM638.127 77.1172L636.646 78.4608L636.651 78.4665L638.127 77.1172ZM610.215 69.3066V67.3066H608.215V69.3066H610.215ZM594.594 135V133C593.919 133 593.738 132.829 593.707 132.799L592.293 134.213L590.879 135.627C591.897 136.646 593.25 137 594.594 137V135ZM592.293 134.213L593.759 132.852C593.507 132.581 593.506 132.442 593.506 132.396H591.506H589.506C589.506 133.642 590.03 134.715 590.827 135.574L592.293 134.213ZM591.506 132.396H593.506C593.506 132.308 593.52 132.195 593.702 131.997L592.232 130.641L590.763 129.284C589.977 130.136 589.506 131.193 589.506 132.396H591.506ZM592.232 130.641L593.698 132.002C593.737 131.96 593.9 131.793 594.533 131.793V129.793V127.793C593.149 127.793 591.777 128.191 590.767 129.28L592.232 130.641ZM594.533 129.793V131.793H604.402V129.793V127.793H594.533V129.793ZM604.402 129.793H606.402V69.3066H604.402H602.402V129.793H604.402ZM604.402 69.3066V67.3066H594.775V69.3066V71.3066H604.402V69.3066ZM594.775 69.3066V67.3066C594.466 67.3066 594.281 67.2642 594.183 67.2288C594.096 67.1974 594.072 67.1707 594.065 67.163L592.596 68.5195L591.126 69.8761C592.11 70.9417 593.455 71.3066 594.775 71.3066V69.3066ZM592.596 68.5195L594.065 67.163C593.883 66.9653 593.869 66.8519 593.869 66.7637H591.869H589.869C589.869 67.9671 590.34 69.0242 591.126 69.8761L592.596 68.5195ZM591.869 66.7637H593.869C593.869 66.6024 593.907 66.4757 594.065 66.3038L592.596 64.9473L591.126 63.5907C590.316 64.4683 589.869 65.5526 589.869 66.7637H591.869ZM592.596 64.9473L594.061 66.3082C594.1 66.2664 594.263 66.0996 594.896 66.0996V64.0996V62.0996C593.512 62.0996 592.141 62.498 591.13 63.5864L592.596 64.9473ZM594.896 64.0996V66.0996H616.572V64.0996V62.0996H594.896V64.0996ZM616.572 64.0996V66.0996C623.276 66.0996 628.998 67.3074 633.798 69.6508L634.676 67.8535L635.553 66.0563C630.101 63.3944 623.754 62.0996 616.572 62.0996V64.0996ZM634.676 67.8535L633.815 69.659C638.593 71.936 642.305 75.4519 644.976 80.267L646.725 79.2969L648.474 78.3267C645.413 72.8085 641.092 68.6955 635.536 66.0481L634.676 67.8535ZM646.725 79.2969L644.976 80.267C647.627 85.0466 649.023 91.3222 649.023 99.2168H651.023H653.023C653.023 90.8849 651.554 83.8805 648.474 78.3267L646.725 79.2969ZM651.023 99.2168H649.023C649.023 111.761 646.048 120.246 640.593 125.228L641.941 126.705L643.29 128.182C649.944 122.105 653.023 112.264 653.023 99.2168H651.023ZM641.941 126.705L640.593 125.228C635.015 130.322 627.061 133 616.451 133V135V137C627.719 137 636.758 134.148 643.29 128.182L641.941 126.705ZM616.451 135V133H594.594V135V137H616.451V135ZM610.215 129.793V131.793H616.875V129.793V127.793H610.215V129.793ZM616.875 129.793V131.793C627.185 131.793 635.091 129.153 640.063 123.413L638.551 122.104L637.039 120.794C633.131 125.307 626.586 127.793 616.875 127.793V129.793ZM638.551 122.104L640.063 123.413C644.941 117.78 647.211 109.599 647.211 99.2168H645.211H643.211C643.211 109.098 641.041 116.174 637.039 120.794L638.551 122.104ZM645.211 99.2168H647.211C647.211 89.336 644.77 81.42 639.603 75.7678L638.127 77.1172L636.651 78.4665C640.93 83.1477 643.211 89.9648 643.211 99.2168H645.211ZM638.127 77.1172L639.608 75.7736C634.412 70.0438 627.008 67.3066 617.723 67.3066V69.3066V71.3066C626.197 71.3066 632.397 73.7765 636.646 78.4608L638.127 77.1172ZM617.723 69.3066V67.3066H610.215V69.3066V71.3066H617.723V69.3066ZM610.215 69.3066H608.215V129.793H610.215H612.215V69.3066H610.215Z" fill="black" mask="url(#path-2-outside-1_42_37)"/>
</svg>